<?xml version="1.0" encoding="UTF-8"?> <!-- Generator: Adobe Illustrator 24.1.3, SVG Export Plug-In . SVG Version: 6.00 Build 0) --> <svg xmlns="http://www.w3.org/2000/svg" xmlns:xlink="http://www.w3.org/1999/xlink" id="Capa_1" x="0px" y="0px" viewBox="0 0 497.9 497.9" style="enable-background:new 0 0 497.9 497.9;" xml:space="preserve"> <style type="text/css"> .st0{fill:#003976;} </style> <g> <g> <path class="st0" d="M248.9,10C117,10,10,117,10,248.9s107,238.9,238.9,238.9s238.9-107,238.9-238.9 C487.7,117,380.8,10.1,248.9,10z M248.9,453.7c-113.1,0-204.8-91.7-204.8-204.8S135.8,44.1,248.9,44.1s204.8,91.7,204.8,204.8 C453.6,362,362,453.6,248.9,453.7z"></path> </g> </g> <g> <g> <path class="st0" d="M380,151.5c-6.6-6.4-17.1-6.4-23.7,0l0,0L197.7,310.1l-56.2-56.2c-6.5-6.8-17.4-7-24.1-0.4 c-6.8,6.5-7,17.4-0.4,24.1c0.1,0.1,0.3,0.3,0.4,0.4l68.3,68.3c6.7,6.7,17.5,6.7,24.1,0l170.7-170.7 C387,168.9,386.8,158.1,380,151.5z"></path> </g> </g> </svg> 